# xmcd
#
# Track frame offsets: 
#        150
#        18347
#        39666
#        51449
#        68693
#        90971
#        118232
#        136498
#        153460
#        173659
#        198803
#        209460
#
# Disc length: 2953 seconds
#
# Revision: 0
# Processed by: cddbd v1.5.2PL0 Copyright (c) Steve Scherf et al.
# Submitted via: ExactAudioCopyFreeDBPlugin 1.0
#
DISCID=a10b870c
DTITLE=Carolyn Fe Blues Collective - Original Sin
DYEAR=2011
DGENRE=blues
TTITLE0=Original Sin
TTITLE1=Broken String
TTITLE2=Baby Bye Bye
TTITLE3=Devil's Fool
TTITLE4=Adja Wali
TTITLE5=You and Me and The Blues
TTITLE6=Don't Be So Sad
TTITLE7=Rant
TTITLE8=Manual Overdrive
TTITLE9=Let's Soar
TTITLE10=Bow Wow
TTITLE11=Some More
EXTD=
EXTT0=
EXTT1=
EXTT2=
EXTT3=
EXTT4=
EXTT5=
EXTT6=
EXTT7=
EXTT8=
EXTT9=
EXTT10=
EXTT11=
PLAYORDER=
